<?xml version="1.0" encoding="UTF-8"?>
<svg id="Calque_1" data-name="Calque 1" xmlns="http://www.w3.org/2000/svg" xmlns:xlink="http://www.w3.org/1999/xlink" viewBox="0 0 710.13 761.49">
  <defs>
    <style>
      .cls-1 {
        stroke-width: 10px;
      }

      .cls-1, .cls-2 {
        fill: #181226;
        stroke: #181226;
        stroke-miterlimit: 10;
      }

      .cls-2 {
        stroke-width: 5.01px;
      }

      .cls-3 {
        fill: url(#Dégradé_sans_nom_34);
        stroke-width: 0px;
      }
    </style>
    <linearGradient id="Dégradé_sans_nom_34" data-name="Dégradé sans nom 34" x1="171.59" y1="76.31" x2="555.39" y2="460.11" gradientUnits="userSpaceOnUse">
      <stop offset=".14" stop-color="#fff68a"/>
      <stop offset=".32" stop-color="#f4d345"/>
      <stop offset=".5" stop-color="#ffdc4a"/>
      <stop offset=".87" stop-color="#8c610a"/>
    </linearGradient>
  </defs>
  <g>
    <path class="cls-3" d="M239.08,13.08c10.8-3,22.94-2.72,34.52-2.97,42.36-.02,106.36-.13,148.84,5.03,7.06.91,13.74,2.36,19.89,4.71,4.1,1.59,7.84,3.58,11.8,6.09,60.33,43.02,180.51,142.22,225.62,187.97,6.66,7.24,13.81,14.67,12.69,24.73-.52,4.94-2.76,10.68-6.35,18.03-6.4,12.99-17.01,31.08-29.94,51.59-29.68,46.69-64.62,96.97-98.99,140.88-10.95,13.73-21.34,26.88-33.66,38.83-11.35,11.57-25.15,14.97-41.05,16.97-57.71,6.89-123.79,11.84-180.84,10.35-26.07-.89-38.82-5.22-58.68-20.33-50.3-37.01-165.47-136.43-203.26-182.09-7.75-9.92-13.33-16.23-12.96-27.24.54-5.53,2.74-11.11,5.5-16.55,24.05-45.87,83.7-125.65,135.48-188.14,22.53-26.47,38.87-45.11,55.15-58.77,4.94-4.03,10.08-7.25,16.13-9.05l.1-.03Z"/>
    <g>
      <path class="cls-1" d="M699.97,243.26c.42,10.35-4.15,19.36-9.96,29.14-5.44,8.92-12.61,19.04-19.6,28.09-38.83,50.06-88.03,113.27-127.05,163.46-15.58,19.39-30.82,42.17-54.37,50.15-12.21,4.39-24.73,6.27-37.92,7.67-23.96,2.42-49.69,2.49-73.84,1.77-9.04-.11-63.83-3.57-54.45-12.32,3.22-2.49,13.04-4.84,27.17-6.5,18.73-2.43,44.38-2.51,64.65-2.52,21.35-.44,42.28.32,62.43-5.84,14.24-4.25,25.98-15.43,36.64-28.45,27.13-33.72,53.65-68.81,80.63-103.2,19.98-25.8,45.67-58.21,62.4-80.85,7.49-10.51,11.46-17.9,10.03-22.7-2.7-9.76-31.04-8.57-40.37-9.16-30.69-.37-63.35-.24-94.56-.1-17.89.42-36.96.07-53.48,5.7-21.76,7.81-34.76,29.4-50.98,49.27-36.47,46.91-77.05,99.09-113.92,146.52-11.93,15.28-22.61,29.47-35.14,42.92-15.09,16.19-26.48,22.33-46.48,8.05-12.22-8.49-23.06-18.08-34.77-28.56-47.32-42.78-101.44-91.87-148.18-134.18-14.3-13.71-43.14-37.25-43.81-55.21-.28-11.02,5.68-20.74,12.35-31.01,3.19-4.83,6.94-10.11,11.18-15.83,39.01-51.12,90.9-116.92,130.53-168.22,10.52-13.59,22.64-29.24,34.2-40.26,5.63-5.23,10.75-8.65,16.04-10.08,17.53-4.33,36.91,13.09,54.3,27.07,25.05,21.91,51.26,46.3,78.32,70.6,17.68,16.25,37.11,32.98,52.35,48.25,39.31,39.92,28.18,48.63-14.71,13.42-18.34-15.27-38.86-34.69-57.92-51.72-20.23-18.31-40.78-36.96-57.22-51.79-16.09-13.61-34.21-33.42-49.43-31.2-9.11,1.91-15.93,9.67-22.81,17.55-42.68,53.09-99.45,127.62-141.47,181.35-6.08,7.87-12.06,16.03-16.41,23.78-5.81,10.65-6.49,18.66.33,28.66,5.29,7.47,13.08,15.04,20.71,22.09,46.96,42.76,112.44,102.14,161.78,146.47,9.67,7.97,22.7,21.18,34.71,20.23,7.95.26,20.15-13.2,28.57-23.95,13.04-16.29,25.22-32.3,41.52-53.17,24.89-32.01,51.94-66.8,76.86-98.85,11.15-14.28,21.3-27.62,32.29-41.11,13.34-16.81,27.53-30.85,48.38-34.36,11.43-2.32,22.65-2.97,34.78-3.51,15.55-.61,31.86-.74,48.06-.73,23.28-.16,53.97.49,74.08-1.05,7.8-.78,24.24-1.85,16.92-13.06-3.91-6.45-14.08-15.92-27.58-28.25-20.7-18.74-46.95-42.57-69.34-62.81-17.95-16.27-35.94-32.53-53.57-48.51-18.85-16.82-40.08-38-63.09-44.05-28.74-7.91-59.61-4.62-89.24-6.73-11.18-.69-21.6-1.81-29.72-3.18-22.49-3.69-25.54-9.31-1.39-13.52,29.53-4.95,65.57-5.04,96.17-1.44,31.91,3.33,54.37,10.76,78.87,33.28,48.35,42.99,102.46,92.79,151.28,136.72,9.29,8.37,19.15,17.31,27.71,25.81,11.15,11.62,25.12,24.38,26.54,39.85v.1Z"/>
      <path class="cls-1" d="M497.14,310.58c-14.94,14.36-32.84-3.21-24.42-20.32,3.43-7.4,12.51-12.38,20.36-9.07,11.31,4.5,12.27,21.17,4.2,29.24l-.14.15Z"/>
      <path class="cls-1" d="M552.52,155.61c11.2,5.13,13.92,22.15,3.95,29.87-12.12,9.39-28.2-2.46-26.5-16.7.82-10.79,12.45-18.11,22.37-13.25l.18.08Z"/>
      <path class="cls-1" d="M365.13,60.73c11.2,5.13,13.92,22.15,3.95,29.87-12.12,9.39-28.2-2.46-26.5-16.7.82-10.79,12.45-18.11,22.37-13.25l.18.08Z"/>
      <path class="cls-1" d="M603.59,315.18c-14.94,14.36-32.84-3.21-24.42-20.32,3.43-7.4,12.51-12.38,20.36-9.07,11.31,4.5,12.27,21.17,4.2,29.24l-.14.15Z"/>
      <path class="cls-1" d="M386.2,458.58c-14.94,14.36-32.84-3.21-24.42-20.32,3.43-7.4,12.51-12.38,20.36-9.07,11.31,4.5,12.27,21.17,4.2,29.24l-.14.15Z"/>
      <path class="cls-1" d="M487.35,465.61c-14.94,14.36-32.84-3.21-24.42-20.32,3.43-7.4,12.51-12.38,20.36-9.07,11.31,4.5,12.27,21.17,4.2,29.24l-.14.15Z"/>
      <path class="cls-1" d="M161.48,213.71c.06,1.4-1.36,5.64-1.59,5.51.03-.96.45-2.05.69-3.06.23-.69.58-2.22.88-2.48l.02.04Z"/>
      <path class="cls-1" d="M363.2,212.92c-10.58-4.85-23.86-6.07-33.93-12.51-7.35-4.76-11.11-10.94-14.98-16.96-4.53-6.92-8.43-2.16-13.55,2.59-4.66,4.57-10.09,10.03-16.17,13.57-17.63,9.99-41.79,6.56-62.8,7.21-6.71-.05-13.81-.07-20.05-.59-8.44-.76-18.21-2.09-18.37-12.06.15-11.11,4.94-23.03,8.45-35.56,5.36-18.53,13.19-41.14,17.12-58.92,2.23-9.19,3.08-28.92-5.9-22.71-6.28,4.2-12.99,21.71-15.76,31.49-6.37,20.73-13.54,44.56-19.9,65.42-5.86,19.33-11.35,37.36-17.22,56.71-5.47,16.5-9.64,37.56-19.41,50.69-8.06,11.28-21.5,14.33-34.4,16.65-5.85,1.32-29.25,5.3-20.89,12.14,3.54,2.73,11.75,4.79,19.19,7.78,12.42,4.42,19.83,11.39,24.86,23.44,1.67,3.33,2.81,8.06,6.8,6.82,4.85-2.24,9.55-9.52,14.08-14.04,6.95-7.97,15.87-13.39,26.71-15.07,14.09-2.31,29.17-1.35,43.54-1.56,11.9.44,31.71-1.29,39.15,5.19,6.28,6.48,1.02,19.27-1.82,30.3-4.16,13.91-9.67,31.9-14.47,47.75-4.13,13.9-7.68,24.08-9.03,36.2-2.24,21.7,9.08,21.1,16.31,3.25,17.25-51.67,42.71-141.05,58.62-190.9,4.1-13.19,10.01-19.06,24.67-20.97,10.89-1.36,24.61-2.18,34.14-5.35,8.31-2.5,12.36-6.3,5.09-9.94l-.1-.05ZM261.45,290.7c-4.78,4.77-16.84,4.77-25.27,4.78-10.2.03-20.43,0-31.6.01-12.43-.1-25.32.28-36.5-.33-12.29-.63-13.81-5.61-11.2-16.41,1.68-7.07,4.9-16.92,7.53-25.11,2.39-6.81,4.55-14.4,9.67-19.42,6.5-5.88,16.14-4.97,24.62-5.29,16.09-.04,39.81-.02,56.7-.01,6.67.43,21.79-1.44,24.3,5.77.75,2.08.65,4.91,0,8.45-.74,4.01-2.2,8.96-3.83,14.26-3.68,10.69-6.89,26.39-14.31,33.23l-.1.08Z"/>
    </g>
  </g>
  <g>
    <path class="cls-2" d="M117.77,717.74c-4.51-.25-9.26-1.25-13.27-3.51-4.01-2.25-7.01-6.01-8.76-10.02-2.5-5.51-2.75-12.02-2.5-18.03,1.25-29.05,9.51-57.09,12.02-85.88.25-2.25,1.75-4.51,3.76-5.51,4.26-2.5,10.02-1.75,15.02-1.75,4.26,0,24.54.25,28.54,1.25,2,.5,4.01,1.5,5.51,3.01,4.76,6.01-1.25,14.52-8.51,12.02,0-.25-.25-.25-.25-.25-4.01-.5-25.79-1-29.8-1-.5,4.51-4.76,31.05-5.51,35.56,9.77.5,19.53.25,29.3-.5,9.52-.75,10.77,14.02,1.25,14.77-11.02,1-22.03,1-32.8.5-1.25,8.26-2.75,16.53-3.25,24.79-.25,4.01-.5,8.01.25,12.02.25,1.5.5,3.26,1.5,4.51,1.75,2.25,8.26,3,11.02,3.25,6.26,0,12.52-.25,18.53-2.25,7.76-3.01,13.77,7.26,7.26,12.77-5.01,4.01-22.78,4.76-29.3,4.26Z"/>
    <path class="cls-2" d="M165.84,716.49c.75-1.75,6.01-9.51,7.26-11.02,13.02-20.53,26.29-41.06,39.56-61.35-1.75-5.26-10.52-31.8-13.02-36.56-1.5-2.75-4.26-4.76-4.76-7.51-.75-5.26,3.76-9.52,8.76-8.76,5.26,1,10.27,11.02,12.27,16.03,2.75,6.76,5.01,13.52,7.26,20.53,7.76-12.02,15.27-23.79,22.28-36.06,4.26-7.26,15.52-3.25,14.02,5.01-.5,2.75-6.26,12.02-7.76,14.27-7.51,11.77-15.02,23.54-22.78,35.3,3,9.51,5.76,19.03,9.01,28.54,4.01,12.27,8.76,24.29,13.52,36.06,3.76,9.77-10.27,14.77-14.27,5.26-6.76-17.53-13.52-35.3-18.78-53.58-5.01,7.76-34.3,53.58-39.56,61.09-5.01,7.01-16.03.75-13.02-7.26Z"/>
    <path class="cls-2" d="M340.36,713.48c-.25-1.25-.25-2.5,0-3.51,2-17.28,5.01-34.55,6.76-51.83-5.51,15.27-12.27,30.8-23.29,42.32-7.01,7.26-16.03,13.77-25.79,15.27-5.26.75-11.02.25-16.03-2-24.29-11.02-13.52-42.82,5.01-62.1,12.52-13.02,29.3-21.78,46.07-27.54,4.26-1.5,8.76-3.25,13.27-3.01-1.5-5.51-5.01-11.27-10.27-13.77-5.01-2.25-11.02-1-16.28.25-4.76,1-9.51,2.25-13.52,5.01-8.01,5.51-16.27-5.76-9.01-11.77,2.5-2.25,5.51-3.76,8.51-4.76,7.26-2.5,15.02-4.51,22.54-5.01,9.51-.75,19.78,4.51,25.54,12.02,4.51,5.51,7.26,12.52,8.01,19.28,1.5,9.52,1.25,19.28.75,28.8-.75,8.26-6.01,53.83-7.51,62.35-1.5,8.26-13.52,8.26-14.77,0ZM303.05,697.96c8.26-5.01,14.77-12.77,19.53-21.28,6.51-11.77,11.02-25.04,14.77-38.31-13.77,4.76-27.29,11.77-37.81,22.04-6.01,5.51-11.02,12.52-14.02,20.03-1.75,4.26-3.25,9.01-2.5,13.52,1.5,8.51,12.77,8.51,20.03,4.01Z"/>
    <path class="cls-2" d="M384.18,720.99c-3.26-3.51-3.26-11.52-.75-15.52,1.25-2.25,3.51-4.26,6.01-5.51,4.76-3,11.02.75,11.27,6.51,0,5.01,0,11.02-3.25,14.77-3.51,4.01-9.77,4.01-13.27-.25Z"/>
    <path class="cls-2" d="M428.63,718.07c-3.01-1-5.76-3.76-6.76-7.01-2.75-8.51,3.76-39.31,5.26-47.82,1.5-8.26,10.27-55.09,11.27-63.35.5-3.51,3.76-6.51,7.26-6.51,1.25,0,2.5-.25,3.76,0,2.25.25,10.02,4.76,12.02,5.76,6.26,3.75,12.02,8.26,17.03,13.77,7.51,8.26,19.96,20.39,23.75,31.24,2.9,8.3,3.93,11.67,2.42,17.93-3.51,15.52-24.42,30.96-37.19,40.47-8.26,6.26-28.8,18.53-38.81,15.52ZM436.14,703.05c11.27-4.01,22.86-9.98,32.62-16.74,9.97-6.9,20.61-18.89,20.35-30.4-.5-14.27-18.92-32.98-30.69-40.74-2-1.5-4.26-2.75-6.51-4.01-2,11.77-14.52,79.87-15.77,91.89Z"/>
    <path class="cls-2" d="M510.87,715.74c0-13.02,6.26-87.64,7.26-100.66.25-5.01.5-9.77,1.25-14.77,1-8.51,13.27-8.51,14.77-.25.25,1,0,2,0,3-1.75,13.77-7.51,94.4-8.26,108.42v5.51c-1.75,9.26-15.02,8.01-15.02-1.25Z"/>
    <path class="cls-2" d="M579.98,716.99c-8.26-2.5-15.52-8.26-20.53-15.02-5.01-6.51-8.26-14.52-9.77-22.54-1.75-9.26-1-18.78.75-27.79,6.01-29.3,31.3-60.85,61.1-58.09,7.51.5,14.77,7.01,18.03,13.77,1.25,2.75,2.25,6.01,1.75,9.01-1.5,7.51-12.02,8.51-14.52,1.25-.25-.5-.5-3.51-.75-4.01-.75-1.5-3.51-4.51-5.01-5.01-5.26-1.5-17.03,3.25-21.28,6.51-11.02,8.26-18.78,21.03-23.04,34.05-4.26,12.77-4.26,28.29,2.25,40.06,5.76,10.52,18.28,18.78,27.54,11.02,4.76-4.26,12.27-.75,12.27,5.76s-9.01,10.01-15.02,11.77c-4.51,1.25-9.51.75-13.77-.75Z"/>
    <path class="cls-2" d="M665.62,717.74c-4.51-.25-9.26-1.25-13.27-3.51-4.01-2.25-7.01-6.01-8.76-10.02-2.5-5.51-2.75-12.02-2.5-18.03,1.25-29.05,9.51-57.09,12.02-85.88.25-2.25,1.75-4.51,3.76-5.51,4.26-2.5,10.02-1.75,15.02-1.75,4.26,0,24.54.25,28.54,1.25,2,.5,4.01,1.5,5.51,3.01,4.76,6.01-1.25,14.52-8.51,12.02,0-.25-.25-.25-.25-.25-4.01-.5-25.79-1-29.8-1-.5,4.51-4.76,31.05-5.51,35.56,9.77.5,19.53.25,29.3-.5,9.52-.75,10.77,14.02,1.25,14.77-11.02,1-22.03,1-32.8.5-1.25,8.26-2.75,16.53-3.25,24.79-.25,4.01-.5,8.01.25,12.02.25,1.5.5,3.26,1.5,4.51,1.75,2.25,8.26,3,11.02,3.25,6.26,0,12.52-.25,18.53-2.25,7.76-3.01,13.77,7.26,7.26,12.77-5.01,4.01-22.78,4.76-29.3,4.26Z"/>
    <path class="cls-2" d="M7.93,655.08c1.36-6.67,11.39-45.48,12.99-52.13,5.82-34.23,25.21-26.96,14.47,4.07-3.1,12.04-5.94,24.1-9.29,36.12,11.74.81,23.24,1.59,34.94,2.89.93-4.69,4.35-20.28,5.02-24.99,1.85-9.39,14.3-7.13,12.7,2.28-1.45,7.66-6.4,42.08-7.84,49.75-2.5,13.85-4.51,27.75-5.79,41.97-.41,1.72-.74,11-1.15,12.72,2.01,40.64-16.89,43.06-14.71-1.33-.85-10.13,6.78-55.7,8.92-65.57-11.95-1.33-23.69-2.13-35.68-2.96-2.7,10.18-5.77,17.61-7.8,23.13-6.22,16.93-14.78,11.76-11.24-5.85,1.1-5.5,2.07-12.38,4.46-20.1Z"/>
  </g>
</svg>