<?xml version="1.0" encoding="UTF-8"?>
<svg id="Calque_1" data-name="Calque 1" xmlns="http://www.w3.org/2000/svg" xmlns:xlink="http://www.w3.org/1999/xlink" viewBox="0 0 954.96 188.08">
  <defs>
    <style>
      .cls-1 {
        stroke-width: 5.13px;
      }

      .cls-1, .cls-2 {
        fill: #181226;
        stroke: #181226;
        stroke-miterlimit: 10;
      }

      .cls-3 {
        fill: url(#Dégradé_sans_nom_34);
        stroke-width: 0px;
      }

      .cls-2 {
        stroke-width: 2.59px;
      }
    </style>
    <linearGradient id="Dégradé_sans_nom_34" data-name="Dégradé sans nom 34" x1="817.01" y1="34.36" x2="916.27" y2="133.62" gradientUnits="userSpaceOnUse">
      <stop offset=".14" stop-color="#fff68a"/>
      <stop offset=".32" stop-color="#f4d345"/>
      <stop offset=".5" stop-color="#ffdc4a"/>
      <stop offset=".87" stop-color="#8c610a"/>
    </linearGradient>
  </defs>
  <g>
    <path class="cls-3" d="M834.46,18.01c2.79-.78,5.93-.7,8.93-.77,10.96,0,27.51-.03,38.49,1.3,1.83.24,3.55.61,5.15,1.22,1.06.41,2.03.92,3.05,1.57,15.6,11.12,46.68,36.78,58.35,48.61,1.72,1.87,3.57,3.79,3.28,6.4-.13,1.28-.71,2.76-1.64,4.66-1.65,3.36-4.4,8.04-7.74,13.34-7.67,12.07-16.71,25.08-25.6,36.43-2.83,3.55-5.52,6.95-8.7,10.04-2.94,2.99-6.51,3.87-10.62,4.39-14.93,1.78-32.01,3.06-46.77,2.68-6.74-.23-10.04-1.35-15.18-5.26-13.01-9.57-42.8-35.28-52.57-47.09-2.01-2.57-3.45-4.2-3.35-7.05.14-1.43.71-2.87,1.42-4.28,6.22-11.86,21.65-32.5,35.04-48.66,5.83-6.85,10.05-11.67,14.26-15.2,1.28-1.04,2.61-1.88,4.17-2.34h.03Z"/>
    <g>
      <path class="cls-2" d="M953.66,77.54c.11,2.68-1.07,5.01-2.58,7.54-1.41,2.31-3.26,4.93-5.07,7.26-10.04,12.95-22.77,29.3-32.86,42.28-4.03,5.01-7.97,10.91-14.06,12.97-3.16,1.14-6.4,1.62-9.81,1.98-6.2.63-12.85.64-19.1.46-2.34-.03-16.51-.92-14.08-3.19.83-.64,3.37-1.25,7.03-1.68,4.84-.63,11.48-.65,16.72-.65,5.52-.11,10.93.08,16.15-1.51,3.68-1.1,6.72-3.99,9.48-7.36,7.02-8.72,13.88-17.8,20.85-26.69,5.17-6.67,11.81-15.06,16.14-20.91,1.94-2.72,2.96-4.63,2.59-5.87-.7-2.52-8.03-2.22-10.44-2.37-7.94-.09-16.38-.06-24.46-.03-4.63.11-9.56.02-13.83,1.48-5.63,2.02-8.99,7.6-13.18,12.74-9.43,12.13-19.93,25.63-29.46,37.89-3.09,3.95-5.85,7.62-9.09,11.1-3.9,4.19-6.85,5.78-12.02,2.08-3.16-2.2-5.96-4.68-8.99-7.39-12.24-11.07-26.23-23.76-38.32-34.7-3.7-3.55-11.16-9.63-11.33-14.28-.07-2.85,1.47-5.36,3.19-8.02.83-1.25,1.8-2.62,2.89-4.1,10.09-13.22,23.51-30.24,33.76-43.51,2.72-3.52,5.86-7.56,8.85-10.41,1.46-1.35,2.78-2.24,4.15-2.61,4.53-1.12,9.55,3.38,14.04,7,6.48,5.67,13.26,11.98,20.26,18.26,4.57,4.2,9.6,8.53,13.54,12.48,10.17,10.32,7.29,12.58-3.8,3.47-4.74-3.95-10.05-8.97-14.98-13.38-5.23-4.73-10.55-9.56-14.8-13.39-4.16-3.52-8.85-8.64-12.78-8.07-2.36.49-4.12,2.5-5.9,4.54-11.04,13.73-25.72,33.01-36.59,46.9-1.57,2.03-3.12,4.15-4.24,6.15-1.5,2.75-1.68,4.83.09,7.41,1.37,1.93,3.38,3.89,5.36,5.71,12.15,11.06,29.08,26.42,41.84,37.88,2.5,2.06,5.87,5.48,8.98,5.23,2.06.07,5.21-3.41,7.39-6.2,3.37-4.21,6.52-8.35,10.74-13.75,6.44-8.28,13.43-17.28,19.88-25.57,2.88-3.69,5.51-7.14,8.35-10.63,3.45-4.35,7.12-7.98,12.51-8.89,2.96-.6,5.86-.77,9-.91,4.02-.16,8.24-.19,12.43-.19,6.02-.04,13.96.13,19.16-.27,2.02-.2,6.27-.48,4.38-3.38-1.01-1.67-3.64-4.12-7.13-7.31-5.35-4.85-12.14-11.01-17.93-16.25-4.64-4.21-9.29-8.41-13.86-12.55-4.88-4.35-10.37-9.83-16.32-11.39-7.43-2.05-15.42-1.19-23.08-1.74-2.89-.18-5.59-.47-7.69-.82-5.82-.95-6.61-2.41-.36-3.5,7.64-1.28,16.96-1.3,24.87-.37,8.25.86,14.06,2.78,20.4,8.61,12.5,11.12,26.5,24,39.12,35.36,2.4,2.16,4.95,4.48,7.17,6.67,2.88,3.01,6.5,6.3,6.86,10.31v.02Z"/>
      <path class="cls-2" d="M901.2,94.95c-3.86,3.71-8.49-.83-6.32-5.26.89-1.91,3.23-3.2,5.26-2.35,2.92,1.16,3.17,5.48,1.09,7.56l-.04.04Z"/>
      <path class="cls-2" d="M915.52,54.87c2.9,1.33,3.6,5.73,1.02,7.73-3.13,2.43-7.29-.64-6.85-4.32.21-2.79,3.22-4.68,5.79-3.43l.05.02Z"/>
      <path class="cls-2" d="M867.06,30.33c2.9,1.33,3.6,5.73,1.02,7.73-3.13,2.43-7.29-.64-6.85-4.32.21-2.79,3.22-4.68,5.79-3.43l.05.02Z"/>
      <path class="cls-2" d="M928.73,96.14c-3.86,3.71-8.49-.83-6.32-5.26.89-1.91,3.23-3.2,5.26-2.35,2.92,1.16,3.17,5.48,1.09,7.56l-.04.04Z"/>
      <path class="cls-2" d="M872.51,133.23c-3.86,3.71-8.49-.83-6.32-5.26.89-1.91,3.23-3.2,5.26-2.35,2.92,1.16,3.17,5.48,1.09,7.56l-.04.04Z"/>
      <path class="cls-2" d="M898.67,135.05c-3.86,3.71-8.49-.83-6.32-5.26.89-1.91,3.23-3.2,5.26-2.35,2.92,1.16,3.17,5.48,1.09,7.56l-.04.04Z"/>
      <path class="cls-2" d="M814.39,69.9c.02.36-.35,1.46-.41,1.42,0-.25.12-.53.18-.79.06-.18.15-.57.23-.64h0Z"/>
      <path class="cls-2" d="M866.56,69.69c-2.74-1.25-6.17-1.57-8.78-3.24-1.9-1.23-2.87-2.83-3.87-4.39-1.17-1.79-2.18-.56-3.5.67-1.2,1.18-2.61,2.6-4.18,3.51-4.56,2.58-10.81,1.7-16.24,1.86-1.73-.01-3.57-.02-5.18-.15-2.18-.2-4.71-.54-4.75-3.12.04-2.87,1.28-5.96,2.19-9.2,1.39-4.79,3.41-10.64,4.43-15.24.58-2.38.8-7.48-1.53-5.87-1.63,1.09-3.36,5.62-4.08,8.14-1.65,5.36-3.5,11.52-5.15,16.92-1.52,5-2.93,9.66-4.45,14.67-1.41,4.27-2.49,9.71-5.02,13.11-2.09,2.92-5.56,3.71-8.9,4.31-1.51.34-7.56,1.37-5.4,3.14.92.7,3.04,1.24,4.96,2.01,3.21,1.14,5.13,2.95,6.43,6.06.43.86.73,2.09,1.76,1.76,1.26-.58,2.47-2.46,3.64-3.63,1.8-2.06,4.1-3.46,6.91-3.9,3.64-.6,7.54-.35,11.26-.4,3.08.12,8.2-.33,10.12,1.34,1.62,1.68.27,4.98-.47,7.84-1.08,3.6-2.5,8.25-3.74,12.35-1.07,3.59-1.99,6.23-2.34,9.36-.58,5.61,2.35,5.46,4.22.84,4.46-13.36,11.05-36.48,15.16-49.37,1.06-3.41,2.59-4.93,6.38-5.42,2.82-.35,6.37-.56,8.83-1.38,2.15-.65,3.2-1.63,1.32-2.57h-.03ZM840.25,89.81c-1.24,1.23-4.36,1.23-6.54,1.24-2.64,0-5.28,0-8.17,0-3.22-.03-6.55.07-9.44-.08-3.18-.16-3.57-1.45-2.9-4.24.43-1.83,1.27-4.38,1.95-6.49.62-1.76,1.18-3.72,2.5-5.02,1.68-1.52,4.17-1.28,6.37-1.37,4.16-.01,10.3,0,14.66,0,1.73.11,5.64-.37,6.29,1.49.19.54.17,1.27,0,2.19-.19,1.04-.57,2.32-.99,3.69-.95,2.76-1.78,6.82-3.7,8.59l-.03.02Z"/>
    </g>
  </g>
  <g>
    <path class="cls-1" d="M120.47,143.28c-4.62-.26-9.49-1.28-13.59-3.59-4.1-2.31-7.18-6.15-8.98-10.26-2.56-5.64-2.82-12.31-2.56-18.46,1.28-29.75,9.74-58.47,12.31-87.96.26-2.31,1.8-4.62,3.85-5.64,4.36-2.56,10.26-1.8,15.39-1.8,4.36,0,25.13.26,29.23,1.28,2.05.51,4.1,1.54,5.64,3.08,4.87,6.15-1.28,14.87-8.72,12.31,0-.26-.26-.26-.26-.26-4.1-.51-26.41-1.03-30.51-1.03-.51,4.62-4.87,31.8-5.64,36.41,10,.51,20,.26,30-.51,9.75-.77,11.03,14.36,1.28,15.13-11.28,1.03-22.57,1.03-33.59.51-1.28,8.46-2.82,16.92-3.33,25.39-.26,4.1-.51,8.21.26,12.31.26,1.54.51,3.33,1.54,4.62,1.8,2.31,8.46,3.08,11.28,3.33,6.41,0,12.82-.26,18.98-2.31,7.95-3.08,14.1,7.44,7.44,13.08-5.13,4.1-23.33,4.87-30,4.36Z"/>
    <path class="cls-1" d="M169.71,142c.77-1.79,6.15-9.74,7.44-11.28,13.33-21.03,26.93-42.06,40.52-62.83-1.8-5.39-10.77-32.57-13.34-37.44-1.54-2.82-4.36-4.87-4.87-7.69-.77-5.39,3.85-9.75,8.98-8.98,5.39,1.03,10.51,11.28,12.57,16.41,2.82,6.92,5.13,13.85,7.44,21.03,7.95-12.31,15.64-24.36,22.82-36.93,4.36-7.44,15.9-3.33,14.36,5.13-.51,2.82-6.41,12.31-7.95,14.62-7.69,12.05-15.39,24.1-23.33,36.16,3.08,9.74,5.9,19.49,9.23,29.23,4.1,12.57,8.98,24.87,13.85,36.93,3.85,10-10.51,15.13-14.62,5.38-6.92-17.95-13.85-36.16-19.23-54.88-5.13,7.95-35.13,54.88-40.52,62.57-5.13,7.18-16.41.77-13.33-7.44Z"/>
    <path class="cls-1" d="M348.44,138.92c-.26-1.28-.26-2.56,0-3.59,2.05-17.69,5.13-35.39,6.92-53.08-5.64,15.64-12.57,31.54-23.85,43.34-7.18,7.44-16.41,14.1-26.41,15.64-5.39.77-11.28.26-16.41-2.05-24.87-11.28-13.85-43.85,5.13-63.59,12.82-13.34,30-22.31,47.18-28.21,4.36-1.54,8.98-3.33,13.59-3.08-1.54-5.64-5.13-11.54-10.51-14.1-5.13-2.31-11.28-1.03-16.67.26-4.87,1.03-9.74,2.31-13.85,5.13-8.21,5.64-16.67-5.9-9.23-12.05,2.56-2.31,5.64-3.85,8.72-4.87,7.44-2.56,15.39-4.62,23.08-5.13,9.74-.77,20.26,4.62,26.16,12.31,4.62,5.64,7.44,12.82,8.21,19.74,1.54,9.75,1.28,19.75.77,29.49-.77,8.46-6.15,55.13-7.69,63.85-1.54,8.46-13.85,8.46-15.13,0ZM310.23,123.02c8.46-5.13,15.13-13.08,20-21.8,6.67-12.05,11.28-25.64,15.13-39.23-14.1,4.87-27.95,12.05-38.72,22.57-6.15,5.64-11.28,12.82-14.36,20.51-1.79,4.36-3.33,9.23-2.56,13.85,1.54,8.72,13.08,8.72,20.51,4.1Z"/>
    <path class="cls-1" d="M393.31,146.61c-3.33-3.59-3.33-11.8-.77-15.9,1.28-2.31,3.59-4.36,6.15-5.64,4.87-3.08,11.28.77,11.54,6.67,0,5.13,0,11.28-3.33,15.13-3.59,4.1-10,4.1-13.59-.26Z"/>
    <path class="cls-1" d="M438.84,143.62c-3.08-1.03-5.9-3.85-6.92-7.18-2.82-8.72,3.85-40.26,5.39-48.98,1.54-8.46,10.51-56.42,11.54-64.88.51-3.59,3.85-6.67,7.44-6.67,1.28,0,2.56-.26,3.85,0,2.31.26,10.26,4.87,12.31,5.9,6.41,3.85,12.31,8.46,17.44,14.1,7.69,8.46,20.44,20.88,24.32,31.99,2.97,8.5,4.02,11.95,2.48,18.36-3.59,15.9-25.01,31.7-38.08,41.45-8.46,6.41-29.49,18.98-39.75,15.9ZM446.53,128.23c11.54-4.1,23.41-10.22,33.41-17.15,10.21-7.07,21.1-19.34,20.85-31.14-.51-14.62-19.38-33.77-31.43-41.72-2.05-1.54-4.36-2.82-6.67-4.1-2.05,12.05-14.87,81.8-16.15,94.11Z"/>
    <path class="cls-1" d="M523.07,141.23c0-13.34,6.41-89.75,7.44-103.09.26-5.13.51-10,1.28-15.13,1.03-8.72,13.59-8.72,15.13-.26.26,1.03,0,2.05,0,3.08-1.79,14.1-7.69,96.68-8.46,111.03v5.64c-1.8,9.49-15.39,8.21-15.39-1.28Z"/>
    <path class="cls-1" d="M593.84,142.51c-8.46-2.56-15.9-8.46-21.03-15.39-5.13-6.67-8.46-14.87-10-23.08-1.79-9.49-1.03-19.23.77-28.46,6.16-30,32.05-62.31,62.57-59.49,7.69.51,15.13,7.18,18.46,14.1,1.28,2.82,2.31,6.15,1.8,9.23-1.54,7.69-12.31,8.72-14.87,1.28-.26-.51-.51-3.59-.77-4.1-.77-1.54-3.59-4.62-5.13-5.13-5.38-1.54-17.44,3.33-21.8,6.67-11.28,8.46-19.23,21.54-23.59,34.88-4.36,13.08-4.36,28.98,2.31,41.03,5.9,10.77,18.72,19.23,28.21,11.28,4.87-4.36,12.57-.77,12.57,5.9s-9.23,10.26-15.39,12.05c-4.62,1.28-9.74.77-14.1-.77Z"/>
    <path class="cls-1" d="M681.54,143.28c-4.62-.26-9.49-1.28-13.59-3.59s-7.18-6.15-8.98-10.26c-2.56-5.64-2.82-12.31-2.56-18.46,1.28-29.75,9.74-58.47,12.31-87.96.26-2.31,1.8-4.62,3.85-5.64,4.36-2.56,10.26-1.8,15.39-1.8,4.36,0,25.13.26,29.23,1.28,2.05.51,4.1,1.54,5.64,3.08,4.87,6.15-1.28,14.87-8.72,12.31,0-.26-.26-.26-.26-.26-4.1-.51-26.41-1.03-30.51-1.03-.51,4.62-4.87,31.8-5.64,36.41,10,.51,20,.26,30-.51,9.75-.77,11.03,14.36,1.28,15.13-11.28,1.03-22.57,1.03-33.59.51-1.28,8.46-2.82,16.92-3.33,25.39-.26,4.1-.51,8.21.26,12.31.26,1.54.51,3.33,1.54,4.62,1.8,2.31,8.46,3.08,11.28,3.33,6.41,0,12.82-.26,18.98-2.31,7.95-3.08,14.1,7.44,7.44,13.08-5.13,4.1-23.33,4.87-30,4.36Z"/>
    <path class="cls-1" d="M7.98,79.12c1.39-6.83,11.66-46.58,13.31-53.39,5.96-35.05,25.82-27.61,14.82,4.17-3.17,12.33-6.09,24.68-9.51,36.99,12.03.83,23.8,1.63,35.78,2.96.95-4.81,4.45-20.76,5.14-25.59,1.9-9.61,14.65-7.3,13.01,2.34-1.48,7.85-6.55,43.1-8.03,50.95-2.57,14.19-4.62,28.42-5.93,42.98-.42,1.76-.76,11.26-1.17,13.02,2.06,41.62-17.29,44.1-15.07-1.36-.87-10.38,6.94-57.05,9.14-67.15-12.24-1.36-24.26-2.19-36.54-3.03-2.76,10.43-5.91,18.03-7.99,23.69-6.37,17.33-15.14,12.04-11.51-5.99,1.13-5.63,2.12-12.68,4.57-20.59Z"/>
  </g>
</svg>