<?xml version="1.0" encoding="UTF-8"?>
<svg id="Calque_1" data-name="Calque 1" xmlns="http://www.w3.org/2000/svg" xmlns:xlink="http://www.w3.org/1999/xlink" viewBox="0 0 796.19 307.51">
  <defs>
    <style>
      .cls-1 {
        stroke-width: 5.68px;
      }

      .cls-1, .cls-2 {
        fill: #181226;
        stroke: #181226;
        stroke-miterlimit: 10;
      }

      .cls-2 {
        stroke-width: 5.13px;
      }

      .cls-3 {
        fill: url(#Dégradé_sans_nom_34);
        stroke-width: 0px;
      }
    </style>
    <linearGradient id="Dégradé_sans_nom_34" data-name="Dégradé sans nom 34" x1="97.52" y1="43.37" x2="315.64" y2="261.49" gradientUnits="userSpaceOnUse">
      <stop offset=".14" stop-color="#fff68a"/>
      <stop offset=".32" stop-color="#f4d345"/>
      <stop offset=".5" stop-color="#ffdc4a"/>
      <stop offset=".87" stop-color="#8c610a"/>
    </linearGradient>
  </defs>
  <g>
    <path class="cls-3" d="M135.87,7.44c6.14-1.71,13.04-1.55,19.62-1.69,24.08-.01,60.44-.08,84.59,2.86,4.01.52,7.81,1.34,11.31,2.68,2.33.9,4.45,2.03,6.71,3.46,34.28,24.45,102.58,80.83,128.23,106.83,3.79,4.11,7.85,8.34,7.21,14.06-.29,2.81-1.57,6.07-3.61,10.24-3.64,7.39-9.66,17.66-17.02,29.32-16.86,26.53-36.72,55.11-56.26,80.06-6.23,7.8-12.13,15.27-19.13,22.07-6.45,6.58-14.3,8.51-23.33,9.65-32.8,3.92-70.35,6.73-102.77,5.88-14.81-.51-22.06-2.97-33.35-11.55-28.58-21.03-94.04-77.53-115.51-103.48-4.41-5.64-7.58-9.22-7.37-15.48.31-3.14,1.56-6.32,3.13-9.4,13.67-26.07,47.57-71.41,77-106.92,12.81-15.04,22.09-25.64,31.34-33.4,2.81-2.29,5.73-4.12,9.17-5.14l.06-.02Z"/>
    <g>
      <path class="cls-1" d="M397.8,138.25c.24,5.88-2.36,11-5.66,16.56-3.09,5.07-7.17,10.82-11.14,15.96-22.07,28.45-50.03,64.38-72.21,92.9-8.86,11.02-17.52,23.97-30.9,28.5-6.94,2.5-14.05,3.56-21.55,4.36-13.62,1.38-28.24,1.42-41.97,1-5.14-.06-36.28-2.03-30.95-7,1.83-1.41,7.41-2.75,15.44-3.69,10.64-1.38,25.22-1.43,36.74-1.43,12.13-.25,24.03.18,35.48-3.32,8.09-2.42,14.76-8.77,20.82-16.17,15.42-19.17,30.49-39.11,45.82-58.65,11.36-14.66,25.95-33.08,35.46-45.95,4.26-5.97,6.51-10.18,5.7-12.9-1.54-5.55-17.64-4.87-22.95-5.21-17.44-.21-36-.13-53.74-.06-10.17.24-21,.04-30.4,3.24-12.37,4.44-19.75,16.71-28.97,28-20.72,26.66-43.79,56.32-64.74,83.27-6.78,8.69-12.85,16.75-19.97,24.39-8.57,9.2-15.05,12.69-26.42,4.57-6.95-4.82-13.1-10.27-19.76-16.23-26.89-24.32-57.65-52.21-84.21-76.26-8.13-7.79-24.51-21.17-24.9-31.38-.16-6.26,3.23-11.79,7.02-17.63,1.81-2.75,3.95-5.75,6.35-9,22.17-29.05,51.66-66.45,74.18-95.6,5.98-7.72,12.87-16.62,19.44-22.88,3.2-2.97,6.11-4.92,9.12-5.73,9.96-2.46,20.98,7.44,30.86,15.38,14.23,12.45,29.13,26.31,44.51,40.12,10.05,9.23,21.09,18.74,29.75,27.42,22.34,22.69,16.02,27.64-8.36,7.62-10.43-8.68-22.09-19.71-32.92-29.39-11.5-10.4-23.18-21-32.52-29.43-9.15-7.73-19.44-18.99-28.09-17.73-5.18,1.09-9.05,5.5-12.96,9.97-24.25,30.17-56.52,72.53-80.4,103.07-3.46,4.47-6.85,9.11-9.32,13.52-3.3,6.05-3.69,10.6.19,16.29,3.01,4.25,7.43,8.55,11.77,12.56,26.69,24.3,63.9,58.05,91.94,83.24,5.5,4.53,12.9,12.04,19.73,11.5,4.52.15,11.45-7.5,16.24-13.61,7.41-9.26,14.33-18.36,23.6-30.22,14.14-18.19,29.52-37.96,43.68-56.18,6.34-8.11,12.1-15.7,18.35-23.36,7.58-9.55,15.64-17.53,27.5-19.53,6.5-1.32,12.87-1.69,19.77-2,8.84-.35,18.1-.42,27.31-.41,13.23-.09,30.67.28,42.1-.6,4.44-.44,13.78-1.05,9.62-7.43-2.22-3.66-8-9.05-15.67-16.05-11.77-10.65-26.68-24.19-39.41-35.7-10.2-9.25-20.42-18.49-30.45-27.57-10.71-9.56-22.78-21.6-35.85-25.04-16.33-4.49-33.88-2.62-50.72-3.82-6.35-.39-12.27-1.03-16.89-1.81-12.78-2.1-14.52-5.29-.79-7.68,16.78-2.81,37.27-2.87,54.66-.82,18.14,1.89,30.9,6.11,44.82,18.92,27.48,24.43,58.23,52.73,85.97,77.7,5.28,4.76,10.88,9.84,15.75,14.67,6.34,6.6,14.28,13.85,15.08,22.65v.05Z"/>
      <path class="cls-1" d="M282.53,176.51c-8.49,8.16-18.66-1.82-13.88-11.55,1.95-4.21,7.11-7.03,11.57-5.15,6.43,2.56,6.97,12.03,2.39,16.62l-.08.08Z"/>
      <path class="cls-1" d="M314,88.43c6.36,2.92,7.91,12.59,2.24,16.98-6.89,5.34-16.03-1.4-15.06-9.49.47-6.13,7.07-10.29,12.71-7.53l.1.05Z"/>
      <path class="cls-1" d="M207.51,34.51c6.36,2.92,7.91,12.59,2.24,16.98-6.89,5.34-16.03-1.4-15.06-9.49.47-6.13,7.07-10.29,12.71-7.53l.1.05Z"/>
      <path class="cls-1" d="M343.03,179.12c-8.49,8.16-18.66-1.82-13.88-11.55,1.95-4.21,7.11-7.03,11.57-5.15,6.43,2.56,6.97,12.03,2.39,16.62l-.08.08Z"/>
      <path class="cls-1" d="M219.48,260.62c-8.49,8.16-18.66-1.82-13.88-11.55,1.95-4.21,7.11-7.03,11.57-5.15,6.43,2.56,6.97,12.03,2.39,16.62l-.08.08Z"/>
      <path class="cls-1" d="M276.97,264.61c-8.49,8.16-18.66-1.82-13.88-11.55,1.95-4.21,7.11-7.03,11.57-5.15,6.43,2.56,6.97,12.03,2.39,16.62l-.08.08Z"/>
      <path class="cls-1" d="M91.77,121.45c.03.8-.77,3.21-.91,3.13.02-.55.25-1.16.39-1.74.13-.39.33-1.26.5-1.41v.02Z"/>
      <path class="cls-1" d="M206.41,121c-6.01-2.76-13.56-3.45-19.28-7.11-4.18-2.7-6.31-6.22-8.51-9.64-2.58-3.93-4.79-1.23-7.7,1.47-2.65,2.6-5.73,5.7-9.19,7.71-10.02,5.68-23.75,3.73-35.69,4.1-3.81-.03-7.85-.04-11.39-.33-4.8-.43-10.35-1.19-10.44-6.86.09-6.32,2.81-13.09,4.8-20.21,3.04-10.53,7.5-23.38,9.73-33.49,1.27-5.22,1.75-16.44-3.35-12.91-3.57,2.39-7.38,12.34-8.96,17.9-3.62,11.78-7.7,25.33-11.31,37.18-3.33,10.98-6.45,21.23-9.78,32.23-3.11,9.37-5.48,21.35-11.03,28.81-4.58,6.41-12.22,8.14-19.55,9.46-3.33.75-16.62,3.01-11.87,6.9,2.01,1.55,6.68,2.72,10.91,4.42,7.06,2.51,11.27,6.48,14.13,13.32.95,1.89,1.6,4.58,3.86,3.88,2.76-1.28,5.43-5.41,8-7.98,3.95-4.53,9.02-7.61,15.18-8.57,8.01-1.31,16.58-.77,24.74-.89,6.76.25,18.02-.74,22.25,2.95,3.57,3.68.58,10.95-1.03,17.22-2.36,7.91-5.5,18.13-8.22,27.14-2.35,7.9-4.36,13.68-5.13,20.57-1.27,12.33,5.16,11.99,9.27,1.85,9.8-29.36,24.27-80.16,33.31-108.49,2.33-7.5,5.69-10.83,14.02-11.92,6.19-.78,13.99-1.24,19.4-3.04,4.72-1.42,7.03-3.58,2.89-5.65l-.06-.03ZM148.59,165.21c-2.72,2.71-9.57,2.71-14.36,2.71-5.8.02-11.61,0-17.96,0-7.07-.06-14.39.16-20.74-.18-6.99-.36-7.85-3.19-6.37-9.33.96-4.02,2.79-9.62,4.28-14.27,1.36-3.87,2.59-8.18,5.49-11.04,3.69-3.34,9.17-2.82,13.99-3.01,9.14-.02,22.62,0,32.22,0,3.79.24,12.39-.82,13.81,3.28.42,1.18.37,2.79,0,4.8-.42,2.28-1.25,5.09-2.17,8.1-2.09,6.07-3.92,15-8.13,18.88l-.06.05Z"/>
    </g>
  </g>
  <g>
    <path class="cls-2" d="M506.62,299.55c-3.08-1.03-5.9-3.85-6.92-7.18-2.82-8.72,3.85-40.26,5.39-48.98,1.54-8.46,10.51-56.42,11.54-64.88.51-3.59,3.85-6.67,7.44-6.67,1.28,0,2.56-.26,3.85,0,2.31.26,10.26,4.87,12.31,5.9,6.41,3.85,12.31,8.46,17.44,14.1,7.69,8.46,20.44,20.88,24.32,31.99,2.97,8.5,4.02,11.95,2.48,18.36-3.59,15.9-25.01,31.7-38.08,41.45-8.46,6.41-29.49,18.98-39.75,15.9ZM514.31,284.16c11.54-4.1,23.41-10.22,33.41-17.15,10.21-7.07,21.1-19.34,20.85-31.14-.51-14.62-19.38-33.77-31.43-41.72-2.05-1.54-4.36-2.82-6.67-4.1-2.05,12.05-14.87,81.8-16.15,94.11Z"/>
    <path class="cls-2" d="M590.85,297.16c0-13.34,6.41-89.75,7.44-103.09.26-5.13.51-10,1.28-15.13,1.03-8.72,13.59-8.72,15.13-.26.26,1.03,0,2.05,0,3.08-1.79,14.1-7.69,96.68-8.46,111.03v5.64c-1.8,9.49-15.39,8.21-15.39-1.28Z"/>
    <path class="cls-2" d="M661.62,298.44c-8.46-2.56-15.9-8.46-21.03-15.39-5.13-6.67-8.46-14.87-10-23.08-1.79-9.49-1.03-19.23.77-28.46,6.16-30,32.05-62.31,62.57-59.49,7.69.51,15.13,7.18,18.46,14.1,1.28,2.82,2.31,6.15,1.8,9.23-1.54,7.69-12.31,8.72-14.87,1.28-.26-.51-.51-3.59-.77-4.1-.77-1.54-3.59-4.62-5.13-5.13-5.38-1.54-17.44,3.33-21.8,6.67-11.28,8.46-19.23,21.54-23.59,34.88-4.36,13.08-4.36,28.98,2.31,41.03,5.9,10.77,18.72,19.23,28.21,11.28,4.87-4.36,12.57-.77,12.57,5.9s-9.23,10.26-15.39,12.05c-4.62,1.28-9.74.77-14.1-.77Z"/>
    <path class="cls-2" d="M749.32,299.21c-4.62-.26-9.49-1.28-13.59-3.59-4.1-2.31-7.18-6.15-8.98-10.26-2.56-5.64-2.82-12.31-2.56-18.46,1.28-29.75,9.74-58.47,12.31-87.96.26-2.31,1.8-4.62,3.85-5.64,4.36-2.56,10.26-1.8,15.39-1.8,4.36,0,25.13.26,29.23,1.28,2.05.51,4.1,1.54,5.64,3.08,4.87,6.15-1.28,14.87-8.72,12.31,0-.26-.26-.26-.26-.26-4.1-.51-26.41-1.03-30.51-1.03-.51,4.62-4.87,31.8-5.64,36.41,10,.51,20,.26,30-.51,9.75-.77,11.03,14.36,1.28,15.13-11.28,1.03-22.57,1.03-33.59.51-1.28,8.46-2.82,16.92-3.33,25.39-.26,4.1-.51,8.21.26,12.31.26,1.54.51,3.33,1.54,4.62,1.8,2.31,8.46,3.08,11.28,3.33,6.41,0,12.82-.26,18.98-2.31,7.95-3.08,14.1,7.44,7.44,13.08-5.13,4.1-23.33,4.87-30,4.36Z"/>
  </g>
  <g>
    <path class="cls-2" d="M542.44,143.56c-4.62-.26-9.49-1.28-13.59-3.59-4.1-2.31-7.18-6.15-8.98-10.26-2.56-5.64-2.82-12.31-2.56-18.46,1.28-29.75,9.74-58.47,12.31-87.96.26-2.31,1.8-4.62,3.85-5.64,4.36-2.56,10.26-1.8,15.39-1.8,4.36,0,25.13.26,29.23,1.28,2.05.51,4.1,1.54,5.64,3.08,4.87,6.15-1.28,14.87-8.72,12.31,0-.26-.26-.26-.26-.26-4.1-.51-26.41-1.03-30.51-1.03-.51,4.62-4.87,31.8-5.64,36.41,10,.51,20,.26,30-.51,9.75-.77,11.03,14.36,1.28,15.13-11.28,1.03-22.57,1.03-33.59.51-1.28,8.46-2.82,16.92-3.33,25.39-.26,4.1-.51,8.21.26,12.31.26,1.54.51,3.33,1.54,4.62,1.8,2.31,8.46,3.08,11.28,3.33,6.41,0,12.82-.26,18.98-2.31,7.95-3.08,14.1,7.44,7.44,13.08-5.13,4.1-23.33,4.87-30,4.36Z"/>
    <path class="cls-2" d="M591.67,142.28c.77-1.79,6.15-9.74,7.44-11.28,13.33-21.03,26.93-42.06,40.52-62.83-1.8-5.39-10.77-32.57-13.34-37.44-1.54-2.82-4.36-4.87-4.87-7.69-.77-5.39,3.85-9.75,8.98-8.98,5.39,1.03,10.51,11.28,12.57,16.41,2.82,6.92,5.13,13.85,7.44,21.03,7.95-12.31,15.64-24.36,22.82-36.93,4.36-7.44,15.9-3.33,14.36,5.13-.51,2.82-6.41,12.31-7.95,14.62-7.69,12.05-15.39,24.1-23.33,36.16,3.08,9.74,5.9,19.49,9.23,29.23,4.1,12.57,8.98,24.87,13.85,36.93,3.85,10-10.51,15.13-14.62,5.38-6.92-17.95-13.85-36.16-19.23-54.88-5.13,7.95-35.13,54.88-40.52,62.57-5.13,7.18-16.41.77-13.33-7.44Z"/>
    <path class="cls-2" d="M770.4,139.2c-.26-1.28-.26-2.56,0-3.59,2.05-17.69,5.13-35.39,6.92-53.08-5.64,15.64-12.57,31.54-23.85,43.34-7.18,7.44-16.41,14.1-26.41,15.64-5.39.77-11.28.26-16.41-2.05-24.87-11.28-13.85-43.85,5.13-63.59,12.82-13.34,30-22.31,47.18-28.21,4.36-1.54,8.98-3.33,13.59-3.08-1.54-5.64-5.13-11.54-10.51-14.1-5.13-2.31-11.28-1.03-16.67.26-4.87,1.03-9.74,2.31-13.85,5.13-8.21,5.64-16.67-5.9-9.23-12.05,2.56-2.31,5.64-3.85,8.72-4.87,7.44-2.56,15.39-4.62,23.08-5.13,9.74-.77,20.26,4.62,26.16,12.31,4.62,5.64,7.44,12.82,8.21,19.74,1.54,9.75,1.28,19.75.77,29.49-.77,8.46-6.15,55.13-7.69,63.85-1.54,8.46-13.85,8.46-15.13,0ZM732.19,123.3c8.46-5.13,15.13-13.08,20-21.8,6.67-12.05,11.28-25.64,15.13-39.23-14.1,4.87-27.95,12.05-38.72,22.57-6.15,5.64-11.28,12.82-14.36,20.51-1.79,4.36-3.33,9.23-2.56,13.85,1.54,8.72,13.08,8.72,20.51,4.1Z"/>
    <path class="cls-2" d="M429.95,79.39c1.39-6.83,11.66-46.58,13.31-53.39,5.96-35.05,25.82-27.61,14.82,4.17-3.17,12.33-6.09,24.68-9.51,36.99,12.03.83,23.8,1.63,35.78,2.96.95-4.81,4.45-20.76,5.14-25.59,1.9-9.61,14.65-7.3,13.01,2.34-1.48,7.85-6.55,43.1-8.03,50.95-2.57,14.19-4.62,28.42-5.93,42.98-.42,1.76-.76,11.26-1.17,13.02,2.06,41.62-17.29,44.1-15.07-1.36-.87-10.38,6.94-57.05,9.14-67.15-12.24-1.36-24.26-2.19-36.54-3.03-2.76,10.43-5.91,18.03-7.99,23.69-6.37,17.33-15.14,12.04-11.51-5.99,1.13-5.63,2.12-12.68,4.57-20.59Z"/>
  </g>
  <path class="cls-2" d="M461.79,298.12c-3.33-3.59-3.33-11.8-.77-15.9,1.28-2.31,3.59-4.36,6.15-5.64,4.87-3.08,11.28.77,11.54,6.67,0,5.13,0,11.28-3.33,15.13-3.59,4.1-10,4.1-13.59-.26Z"/>
</svg>