<?xml version="1.0" encoding="UTF-8"?>
<svg id="Calque_1" data-name="Calque 1" xmlns="http://www.w3.org/2000/svg" xmlns:xlink="http://www.w3.org/1999/xlink" viewBox="0 0 704.99 528.94">
  <defs>
    <style>
      .cls-1 {
        fill: #181226;
        stroke: #181226;
        stroke-miterlimit: 10;
        stroke-width: 10px;
      }

      .cls-2 {
        fill: url(#Dégradé_sans_nom_34);
        stroke-width: 0px;
      }
    </style>
    <linearGradient id="Dégradé_sans_nom_34" data-name="Dégradé sans nom 34" x1="171.59" y1="76.31" x2="555.39" y2="460.11" gradientUnits="userSpaceOnUse">
      <stop offset=".14" stop-color="#fff68a"/>
      <stop offset=".32" stop-color="#f4d345"/>
      <stop offset=".5" stop-color="#ffdc4a"/>
      <stop offset=".87" stop-color="#8c610a"/>
    </linearGradient>
  </defs>
  <path class="cls-2" d="M239.08,13.08c10.8-3,22.94-2.72,34.52-2.97,42.36-.02,106.36-.13,148.84,5.03,7.06.91,13.74,2.36,19.89,4.71,4.1,1.59,7.84,3.58,11.8,6.09,60.33,43.02,180.51,142.22,225.62,187.97,6.66,7.24,13.81,14.67,12.69,24.73-.52,4.94-2.76,10.68-6.35,18.03-6.4,12.99-17.01,31.08-29.94,51.59-29.68,46.69-64.62,96.97-98.99,140.88-10.95,13.73-21.34,26.88-33.66,38.83-11.35,11.57-25.15,14.97-41.05,16.97-57.71,6.89-123.79,11.84-180.84,10.35-26.07-.89-38.82-5.22-58.68-20.33-50.3-37.01-165.47-136.43-203.26-182.09-7.75-9.92-13.33-16.23-12.96-27.24.54-5.53,2.74-11.11,5.5-16.55,24.05-45.87,83.7-125.65,135.48-188.14,22.53-26.47,38.87-45.11,55.15-58.77,4.94-4.03,10.08-7.25,16.13-9.05l.1-.03Z"/>
  <g>
    <path class="cls-1" d="M699.97,243.26c.42,10.35-4.15,19.36-9.96,29.14-5.44,8.92-12.61,19.04-19.6,28.09-38.83,50.06-88.03,113.27-127.05,163.46-15.58,19.39-30.82,42.17-54.37,50.15-12.21,4.39-24.73,6.27-37.92,7.67-23.96,2.42-49.69,2.49-73.84,1.77-9.04-.11-63.83-3.57-54.45-12.32,3.22-2.49,13.04-4.84,27.17-6.5,18.73-2.43,44.38-2.51,64.65-2.52,21.35-.44,42.28.32,62.43-5.84,14.24-4.25,25.98-15.43,36.64-28.45,27.13-33.72,53.65-68.81,80.63-103.2,19.98-25.8,45.67-58.21,62.4-80.85,7.49-10.51,11.46-17.9,10.03-22.7-2.7-9.76-31.04-8.57-40.37-9.16-30.69-.37-63.35-.24-94.56-.1-17.89.42-36.96.07-53.48,5.7-21.76,7.81-34.76,29.4-50.98,49.27-36.47,46.91-77.05,99.09-113.92,146.52-11.93,15.28-22.61,29.47-35.14,42.92-15.09,16.19-26.48,22.33-46.48,8.05-12.22-8.49-23.06-18.08-34.77-28.56-47.32-42.78-101.44-91.87-148.18-134.18-14.3-13.71-43.14-37.25-43.81-55.21-.28-11.02,5.68-20.74,12.35-31.01,3.19-4.83,6.94-10.11,11.18-15.83,39.01-51.12,90.9-116.92,130.53-168.22,10.52-13.59,22.64-29.24,34.2-40.26,5.63-5.23,10.75-8.65,16.04-10.08,17.53-4.33,36.91,13.09,54.3,27.07,25.05,21.91,51.26,46.3,78.32,70.6,17.68,16.25,37.11,32.98,52.35,48.25,39.31,39.92,28.18,48.63-14.71,13.42-18.34-15.27-38.86-34.69-57.92-51.72-20.23-18.31-40.78-36.96-57.22-51.79-16.09-13.61-34.21-33.42-49.43-31.2-9.11,1.91-15.93,9.67-22.81,17.55-42.68,53.09-99.45,127.62-141.47,181.35-6.08,7.87-12.06,16.03-16.41,23.78-5.81,10.65-6.49,18.66.33,28.66,5.29,7.47,13.08,15.04,20.71,22.09,46.96,42.76,112.44,102.14,161.78,146.47,9.67,7.97,22.7,21.18,34.71,20.23,7.95.26,20.15-13.2,28.57-23.95,13.04-16.29,25.22-32.3,41.52-53.17,24.89-32.01,51.94-66.8,76.86-98.85,11.15-14.28,21.3-27.62,32.29-41.11,13.34-16.81,27.53-30.85,48.38-34.36,11.43-2.32,22.65-2.97,34.78-3.51,15.55-.61,31.86-.74,48.06-.73,23.28-.16,53.97.49,74.08-1.05,7.8-.78,24.24-1.85,16.92-13.06-3.91-6.45-14.08-15.92-27.58-28.25-20.7-18.74-46.95-42.57-69.34-62.81-17.95-16.27-35.94-32.53-53.57-48.51-18.85-16.82-40.08-38-63.09-44.05-28.74-7.91-59.61-4.62-89.24-6.73-11.18-.69-21.6-1.81-29.72-3.18-22.49-3.69-25.54-9.31-1.39-13.52,29.53-4.95,65.57-5.04,96.17-1.44,31.91,3.33,54.37,10.76,78.87,33.28,48.35,42.99,102.46,92.79,151.28,136.72,9.29,8.37,19.15,17.31,27.71,25.81,11.15,11.62,25.12,24.38,26.54,39.85v.1Z"/>
    <path class="cls-1" d="M497.14,310.58c-14.94,14.36-32.84-3.21-24.42-20.32,3.43-7.4,12.51-12.38,20.36-9.07,11.31,4.5,12.27,21.17,4.2,29.24l-.14.15Z"/>
    <path class="cls-1" d="M552.52,155.61c11.2,5.13,13.92,22.15,3.95,29.87-12.12,9.39-28.2-2.46-26.5-16.7.82-10.79,12.45-18.11,22.37-13.25l.18.08Z"/>
    <path class="cls-1" d="M365.13,60.73c11.2,5.13,13.92,22.15,3.95,29.87-12.12,9.39-28.2-2.46-26.5-16.7.82-10.79,12.45-18.11,22.37-13.25l.18.08Z"/>
    <path class="cls-1" d="M603.59,315.18c-14.94,14.36-32.84-3.21-24.42-20.32,3.43-7.4,12.51-12.38,20.36-9.07,11.31,4.5,12.27,21.17,4.2,29.24l-.14.15Z"/>
    <path class="cls-1" d="M386.2,458.58c-14.94,14.36-32.84-3.21-24.42-20.32,3.43-7.4,12.51-12.38,20.36-9.07,11.31,4.5,12.27,21.17,4.2,29.24l-.14.15Z"/>
    <path class="cls-1" d="M487.35,465.61c-14.94,14.36-32.84-3.21-24.42-20.32,3.43-7.4,12.51-12.38,20.36-9.07,11.31,4.5,12.27,21.17,4.2,29.24l-.14.15Z"/>
    <path class="cls-1" d="M161.48,213.71c.06,1.4-1.36,5.64-1.59,5.51.03-.96.45-2.05.69-3.06.23-.69.58-2.22.88-2.48l.02.04Z"/>
    <path class="cls-1" d="M363.2,212.92c-10.58-4.85-23.86-6.07-33.93-12.51-7.35-4.76-11.11-10.94-14.98-16.96-4.53-6.92-8.43-2.16-13.55,2.59-4.66,4.57-10.09,10.03-16.17,13.57-17.63,9.99-41.79,6.56-62.8,7.21-6.71-.05-13.81-.07-20.05-.59-8.44-.76-18.21-2.09-18.37-12.06.15-11.11,4.94-23.03,8.45-35.56,5.36-18.53,13.19-41.14,17.12-58.92,2.23-9.19,3.08-28.92-5.9-22.71-6.28,4.2-12.99,21.71-15.76,31.49-6.37,20.73-13.54,44.56-19.9,65.42-5.86,19.33-11.35,37.36-17.22,56.71-5.47,16.5-9.64,37.56-19.41,50.69-8.06,11.28-21.5,14.33-34.4,16.65-5.85,1.32-29.25,5.3-20.89,12.14,3.54,2.73,11.75,4.79,19.19,7.78,12.42,4.42,19.83,11.39,24.86,23.44,1.67,3.33,2.81,8.06,6.8,6.82,4.85-2.24,9.55-9.52,14.08-14.04,6.95-7.97,15.87-13.39,26.71-15.07,14.09-2.31,29.17-1.35,43.54-1.56,11.9.44,31.71-1.29,39.15,5.19,6.28,6.48,1.02,19.27-1.82,30.3-4.16,13.91-9.67,31.9-14.47,47.75-4.13,13.9-7.68,24.08-9.03,36.2-2.24,21.7,9.08,21.1,16.31,3.25,17.25-51.67,42.71-141.05,58.62-190.9,4.1-13.19,10.01-19.06,24.67-20.97,10.89-1.36,24.61-2.18,34.14-5.35,8.31-2.5,12.36-6.3,5.09-9.94l-.1-.05ZM261.45,290.7c-4.78,4.77-16.84,4.77-25.27,4.78-10.2.03-20.43,0-31.6.01-12.43-.1-25.32.28-36.5-.33-12.29-.63-13.81-5.61-11.2-16.41,1.68-7.07,4.9-16.92,7.53-25.11,2.39-6.81,4.55-14.4,9.67-19.42,6.5-5.88,16.14-4.97,24.62-5.29,16.09-.04,39.81-.02,56.7-.01,6.67.43,21.79-1.44,24.3,5.77.75,2.08.65,4.91,0,8.45-.74,4.01-2.2,8.96-3.83,14.26-3.68,10.69-6.89,26.39-14.31,33.23l-.1.08Z"/>
  </g>
</svg>