<?xml version="1.0" encoding="UTF-8"?>
<svg id="Calque_2" data-name="Calque 2" xmlns="http://www.w3.org/2000/svg" xmlns:xlink="http://www.w3.org/1999/xlink" viewBox="0 0 16.23 12.18">
  <defs>
    <style>
      .cls-1 {
        fill: #181226;
        stroke: #181226;
        stroke-miterlimit: 10;
        stroke-width: .23px;
      }

      .cls-2 {
        fill: url(#Dégradé_sans_nom_34);
        stroke-width: 0px;
      }
    </style>
    <linearGradient id="Dégradé_sans_nom_34" data-name="Dégradé sans nom 34" x1="3.95" y1="1.76" x2="12.79" y2="10.59" gradientUnits="userSpaceOnUse">
      <stop offset=".14" stop-color="#fff68a"/>
      <stop offset=".32" stop-color="#f4d345"/>
      <stop offset=".5" stop-color="#ffdc4a"/>
      <stop offset=".87" stop-color="#8c610a"/>
    </linearGradient>
  </defs>
  <g id="Calque_1-2" data-name="Calque 1">
    <g>
      <path class="cls-2" d="M5.5.3c.25-.07.53-.06.79-.07.98,0,2.45,0,3.43.12.16.02.32.05.46.11.09.04.18.08.27.14,1.39.99,4.16,3.27,5.19,4.33.15.17.32.34.29.57-.01.11-.06.25-.15.41-.15.3-.39.72-.69,1.19-.68,1.07-1.49,2.23-2.28,3.24-.25.32-.49.62-.77.89-.26.27-.58.34-.95.39-1.33.16-2.85.27-4.16.24-.6-.02-.89-.12-1.35-.47-1.16-.85-3.81-3.14-4.68-4.19-.18-.23-.31-.37-.3-.63.01-.13.06-.26.13-.38.55-1.06,1.93-2.89,3.12-4.33.52-.61.89-1.04,1.27-1.35.11-.09.23-.17.37-.21h0Z"/>
      <g>
        <path class="cls-1" d="M16.11,5.6c0,.24-.1.45-.23.67-.13.21-.29.44-.45.65-.89,1.15-2.03,2.61-2.92,3.76-.36.45-.71.97-1.25,1.15-.28.1-.57.14-.87.18-.55.06-1.14.06-1.7.04-.21,0-1.47-.08-1.25-.28.07-.06.3-.11.63-.15.43-.06,1.02-.06,1.49-.06.49-.01.97,0,1.44-.13.33-.1.6-.36.84-.65.62-.78,1.24-1.58,1.86-2.38.46-.59,1.05-1.34,1.44-1.86.17-.24.26-.41.23-.52-.06-.22-.71-.2-.93-.21-.71,0-1.46,0-2.18,0-.41,0-.85,0-1.23.13-.5.18-.8.68-1.17,1.13-.84,1.08-1.77,2.28-2.62,3.37-.27.35-.52.68-.81.99-.35.37-.61.51-1.07.19-.28-.2-.53-.42-.8-.66-1.09-.98-2.34-2.12-3.41-3.09-.33-.32-.99-.86-1.01-1.27,0-.25.13-.48.28-.71.07-.11.16-.23.26-.36.9-1.18,2.09-2.69,3.01-3.87.24-.31.52-.67.79-.93.13-.12.25-.2.37-.23.4-.1.85.3,1.25.62.58.5,1.18,1.07,1.8,1.63.41.37.85.76,1.21,1.11.91.92.65,1.12-.34.31-.42-.35-.89-.8-1.33-1.19-.47-.42-.94-.85-1.32-1.19-.37-.31-.79-.77-1.14-.72-.21.04-.37.22-.53.4-.98,1.22-2.29,2.94-3.26,4.18-.14.18-.28.37-.38.55-.13.25-.15.43,0,.66.12.17.3.35.48.51,1.08.98,2.59,2.35,3.72,3.37.22.18.52.49.8.47.18,0,.46-.3.66-.55.3-.38.58-.74.96-1.22.57-.74,1.2-1.54,1.77-2.28.26-.33.49-.64.74-.95.31-.39.63-.71,1.11-.79.26-.05.52-.07.8-.08.36-.01.73-.02,1.11-.02.54,0,1.24.01,1.71-.02.18-.02.56-.04.39-.3-.09-.15-.32-.37-.63-.65-.48-.43-1.08-.98-1.6-1.45-.41-.37-.83-.75-1.23-1.12-.43-.39-.92-.87-1.45-1.01-.66-.18-1.37-.11-2.05-.15-.26-.02-.5-.04-.68-.07-.52-.08-.59-.21-.03-.31.68-.11,1.51-.12,2.21-.03.73.08,1.25.25,1.82.77,1.11.99,2.36,2.14,3.48,3.15.21.19.44.4.64.59.26.27.58.56.61.92h0Z"/>
        <path class="cls-1" d="M11.44,7.15c-.34.33-.76-.07-.56-.47.08-.17.29-.28.47-.21.26.1.28.49.1.67h0Z"/>
        <path class="cls-1" d="M12.72,3.58c.26.12.32.51.09.69-.28.22-.65-.06-.61-.38.02-.25.29-.42.52-.31h0Z"/>
        <path class="cls-1" d="M8.41,1.4c.26.12.32.51.09.69-.28.22-.65-.06-.61-.38.02-.25.29-.42.52-.31h0Z"/>
        <path class="cls-1" d="M13.9,7.26c-.34.33-.76-.07-.56-.47.08-.17.29-.28.47-.21.26.1.28.49.1.67h0Z"/>
        <path class="cls-1" d="M8.89,10.56c-.34.33-.76-.07-.56-.47.08-.17.29-.28.47-.21.26.1.28.49.1.67h0Z"/>
        <path class="cls-1" d="M11.22,10.72c-.34.33-.76-.07-.56-.47.08-.17.29-.28.47-.21.26.1.28.49.1.67h0Z"/>
        <path class="cls-1" d="M3.72,4.92s-.03.13-.04.13c0-.02.01-.05.02-.07,0-.02.01-.05.02-.06h0Z"/>
        <path class="cls-1" d="M8.36,4.9c-.24-.11-.55-.14-.78-.29-.17-.11-.26-.25-.34-.39-.1-.16-.19-.05-.31.06-.11.11-.23.23-.37.31-.41.23-.96.15-1.45.17-.15,0-.32,0-.46-.01-.19-.02-.42-.05-.42-.28,0-.26.11-.53.19-.82.12-.43.3-.95.39-1.36.05-.21.07-.67-.14-.52-.14.1-.3.5-.36.72-.15.48-.31,1.03-.46,1.51-.14.44-.26.86-.4,1.31-.13.38-.22.86-.45,1.17-.19.26-.5.33-.79.38-.13.03-.67.12-.48.28.08.06.27.11.44.18.29.1.46.26.57.54.04.08.06.19.16.16.11-.05.22-.22.32-.32.16-.18.37-.31.61-.35.32-.05.67-.03,1-.04.27.01.73-.03.9.12.14.15.02.44-.04.7-.1.32-.22.73-.33,1.1-.1.32-.18.55-.21.83-.05.5.21.49.38.07.4-1.19.98-3.25,1.35-4.39.09-.3.23-.44.57-.48.25-.03.57-.05.79-.12.19-.06.28-.15.12-.23h0ZM6.02,6.69c-.11.11-.39.11-.58.11-.23,0-.47,0-.73,0-.29,0-.58,0-.84,0-.28-.01-.32-.13-.26-.38.04-.16.11-.39.17-.58.06-.16.1-.33.22-.45.15-.14.37-.11.57-.12.37,0,.92,0,1.31,0,.15,0,.5-.03.56.13.02.05.01.11,0,.19-.02.09-.05.21-.09.33-.08.25-.16.61-.33.76h0Z"/>
      </g>
    </g>
  </g>
</svg>